<mxfile host="65bd71144e">
    <diagram id="wRZ1q69aCZ8DGBK0kFud" name="vmagnify_picture class">
        <mxGraphModel dx="990" dy="404" grid="1" gridSize="10" guides="1" tooltips="1" connect="1" arrows="1" fold="1" page="1" pageScale="1" pageWidth="1169" pageHeight="827" math="0" shadow="0">
            <root>
                <mxCell id="eZnOiQWrvNxz3lN1Kgvf-0"/>
                <mxCell id="eZnOiQWrvNxz3lN1Kgvf-1" parent="eZnOiQWrvNxz3lN1Kgvf-0"/>
                <mxCell id="jTDwJ8_vyyRA_QQz01Lf-4" value="vmagnify_picture" style="swimlane;fontStyle=1;align=center;verticalAlign=top;childLayout=stackLayout;horizontal=1;startSize=26;horizontalStack=0;resizeParent=1;resizeParentMax=0;resizeLast=0;collapsible=1;marginBottom=0;" parent="eZnOiQWrvNxz3lN1Kgvf-1" vertex="1">
                    <mxGeometry x="80" y="120" width="400" height="372" as="geometry">
                        <mxRectangle x="280" y="120" width="130" height="26" as="alternateBounds"/>
                    </mxGeometry>
                </mxCell>
                <mxCell id="jTDwJ8_vyyRA_QQz01Lf-5" value="+ original_picture: Mat&#10;&#10;" style="text;strokeColor=none;fillColor=none;align=left;verticalAlign=top;spacingLeft=4;spacingRight=4;overflow=hidden;rotatable=0;points=[[0,0.5],[1,0.5]];portConstraint=eastwest;" parent="jTDwJ8_vyyRA_QQz01Lf-4" vertex="1">
                    <mxGeometry y="26" width="400" height="26" as="geometry"/>
                </mxCell>
                <mxCell id="jTDwJ8_vyyRA_QQz01Lf-9" value="+ x2_zoom_picture: Mat&#10;&#10;" style="text;strokeColor=none;fillColor=none;align=left;verticalAlign=top;spacingLeft=4;spacingRight=4;overflow=hidden;rotatable=0;points=[[0,0.5],[1,0.5]];portConstraint=eastwest;" parent="jTDwJ8_vyyRA_QQz01Lf-4" vertex="1">
                    <mxGeometry y="52" width="400" height="26" as="geometry"/>
                </mxCell>
                <mxCell id="jTDwJ8_vyyRA_QQz01Lf-10" value="+ x3_zoom_picture: Mat&#10;&#10;" style="text;strokeColor=none;fillColor=none;align=left;verticalAlign=top;spacingLeft=4;spacingRight=4;overflow=hidden;rotatable=0;points=[[0,0.5],[1,0.5]];portConstraint=eastwest;" parent="jTDwJ8_vyyRA_QQz01Lf-4" vertex="1">
                    <mxGeometry y="78" width="400" height="26" as="geometry"/>
                </mxCell>
                <mxCell id="jTDwJ8_vyyRA_QQz01Lf-25" value="+ x4_zoom_picture: Mat&#10;&#10;" style="text;strokeColor=none;fillColor=none;align=left;verticalAlign=top;spacingLeft=4;spacingRight=4;overflow=hidden;rotatable=0;points=[[0,0.5],[1,0.5]];portConstraint=eastwest;" parent="jTDwJ8_vyyRA_QQz01Lf-4" vertex="1">
                    <mxGeometry y="104" width="400" height="26" as="geometry"/>
                </mxCell>
                <mxCell id="jTDwJ8_vyyRA_QQz01Lf-6" value="" style="line;strokeWidth=1;fillColor=none;align=left;verticalAlign=middle;spacingTop=-1;spacingLeft=3;spacingRight=3;rotatable=0;labelPosition=right;points=[];portConstraint=eastwest;" parent="jTDwJ8_vyyRA_QQz01Lf-4" vertex="1">
                    <mxGeometry y="130" width="400" height="8" as="geometry"/>
                </mxCell>
                <mxCell id="RRCS8ARFTMIVo7zK5_Vd-0" value="+ __delete_picture()" style="text;strokeColor=none;fillColor=none;align=left;verticalAlign=top;spacingLeft=4;spacingRight=4;overflow=hidden;rotatable=0;points=[[0,0.5],[1,0.5]];portConstraint=eastwest;" parent="jTDwJ8_vyyRA_QQz01Lf-4" vertex="1">
                    <mxGeometry y="138" width="400" height="26" as="geometry"/>
                </mxCell>
                <mxCell id="jTDwJ8_vyyRA_QQz01Lf-26" value="+ __download_url_content(url:string) : string,bool" style="text;strokeColor=none;fillColor=none;align=left;verticalAlign=top;spacingLeft=4;spacingRight=4;overflow=hidden;rotatable=0;points=[[0,0.5],[1,0.5]];portConstraint=eastwest;" parent="jTDwJ8_vyyRA_QQz01Lf-4" vertex="1">
                    <mxGeometry y="164" width="400" height="26" as="geometry"/>
                </mxCell>
                <mxCell id="jTDwJ8_vyyRA_QQz01Lf-19" value="+ __process_picture(file : string)" style="text;strokeColor=none;fillColor=none;align=left;verticalAlign=top;spacingLeft=4;spacingRight=4;overflow=hidden;rotatable=0;points=[[0,0.5],[1,0.5]];portConstraint=eastwest;" parent="jTDwJ8_vyyRA_QQz01Lf-4" vertex="1">
                    <mxGeometry y="190" width="400" height="26" as="geometry"/>
                </mxCell>
                <mxCell id="jTDwJ8_vyyRA_QQz01Lf-27" value="+ __upload_picture() : string,bool" style="text;strokeColor=none;fillColor=none;align=left;verticalAlign=top;spacingLeft=4;spacingRight=4;overflow=hidden;rotatable=0;points=[[0,0.5],[1,0.5]];portConstraint=eastwest;" parent="jTDwJ8_vyyRA_QQz01Lf-4" vertex="1">
                    <mxGeometry y="216" width="400" height="26" as="geometry"/>
                </mxCell>
                <mxCell id="jTDwJ8_vyyRA_QQz01Lf-20" value="+ __validate_picture(file : string) : bool" style="text;strokeColor=none;fillColor=none;align=left;verticalAlign=top;spacingLeft=4;spacingRight=4;overflow=hidden;rotatable=0;points=[[0,0.5],[1,0.5]];portConstraint=eastwest;" parent="jTDwJ8_vyyRA_QQz01Lf-4" vertex="1">
                    <mxGeometry y="242" width="400" height="26" as="geometry"/>
                </mxCell>
                <mxCell id="jTDwJ8_vyyRA_QQz01Lf-16" value="+ __validate_url(url:string) : bool" style="text;strokeColor=none;fillColor=none;align=left;verticalAlign=top;spacingLeft=4;spacingRight=4;overflow=hidden;rotatable=0;points=[[0,0.5],[1,0.5]];portConstraint=eastwest;" parent="jTDwJ8_vyyRA_QQz01Lf-4" vertex="1">
                    <mxGeometry y="268" width="400" height="26" as="geometry"/>
                </mxCell>
                <mxCell id="jTDwJ8_vyyRA_QQz01Lf-7" value="+ cleanup_pictures()" style="text;strokeColor=none;fillColor=none;align=left;verticalAlign=top;spacingLeft=4;spacingRight=4;overflow=hidden;rotatable=0;points=[[0,0.5],[1,0.5]];portConstraint=eastwest;" parent="jTDwJ8_vyyRA_QQz01Lf-4" vertex="1">
                    <mxGeometry y="294" width="400" height="26" as="geometry"/>
                </mxCell>
                <mxCell id="jTDwJ8_vyyRA_QQz01Lf-17" value="+ process_uploaded_picture(file:string) : bool" style="text;strokeColor=none;fillColor=none;align=left;verticalAlign=top;spacingLeft=4;spacingRight=4;overflow=hidden;rotatable=0;points=[[0,0.5],[1,0.5]];portConstraint=eastwest;" parent="jTDwJ8_vyyRA_QQz01Lf-4" vertex="1">
                    <mxGeometry y="320" width="400" height="26" as="geometry"/>
                </mxCell>
                <mxCell id="jTDwJ8_vyyRA_QQz01Lf-15" value="+ process_url(url:string) : bool" style="text;strokeColor=none;fillColor=none;align=left;verticalAlign=top;spacingLeft=4;spacingRight=4;overflow=hidden;rotatable=0;points=[[0,0.5],[1,0.5]];portConstraint=eastwest;" parent="jTDwJ8_vyyRA_QQz01Lf-4" vertex="1">
                    <mxGeometry y="346" width="400" height="26" as="geometry"/>
                </mxCell>
            </root>
        </mxGraphModel>
    </diagram>
</mxfile>